<mxfile host="app.diagrams.net" agent="Mozilla/5.0 (X11; Linux x86_64; rv:142.0) Gecko/20100101 Firefox/142.0" version="28.2.3">
  <diagram name="Page-1" id="oQjPAN8E-YgC2u2G101v">
    <mxGraphModel dx="1426" dy="758" grid="1" gridSize="10" guides="1" tooltips="1" connect="1" arrows="1" fold="1" page="1" pageScale="1" pageWidth="850" pageHeight="1100" math="0" shadow="0">
      <root>
        <mxCell id="0" />
        <mxCell id="1" parent="0" />
        <mxCell id="aYtecQk715D64rf_AOso-3" value="" style="edgeStyle=orthogonalEdgeStyle;rounded=0;orthogonalLoop=1;jettySize=auto;html=1;" edge="1" parent="1" source="aYtecQk715D64rf_AOso-1" target="aYtecQk715D64rf_AOso-2">
          <mxGeometry relative="1" as="geometry" />
        </mxCell>
        <mxCell id="aYtecQk715D64rf_AOso-1" value="pradzia" style="ellipse;whiteSpace=wrap;html=1;" vertex="1" parent="1">
          <mxGeometry x="365" y="30" width="120" height="80" as="geometry" />
        </mxCell>
        <mxCell id="aYtecQk715D64rf_AOso-5" value="" style="edgeStyle=orthogonalEdgeStyle;rounded=0;orthogonalLoop=1;jettySize=auto;html=1;" edge="1" parent="1" source="aYtecQk715D64rf_AOso-2" target="aYtecQk715D64rf_AOso-4">
          <mxGeometry relative="1" as="geometry" />
        </mxCell>
        <mxCell id="aYtecQk715D64rf_AOso-2" value="ivesti a , b , c , d ,e" style="shape=parallelogram;perimeter=parallelogramPerimeter;whiteSpace=wrap;html=1;fixedSize=1;" vertex="1" parent="1">
          <mxGeometry x="365" y="200" width="120" height="60" as="geometry" />
        </mxCell>
        <mxCell id="aYtecQk715D64rf_AOso-7" value="" style="edgeStyle=orthogonalEdgeStyle;rounded=0;orthogonalLoop=1;jettySize=auto;html=1;" edge="1" parent="1" source="aYtecQk715D64rf_AOso-4" target="aYtecQk715D64rf_AOso-6">
          <mxGeometry relative="1" as="geometry" />
        </mxCell>
        <mxCell id="aYtecQk715D64rf_AOso-4" value="&lt;div style=&quot;background-color:#ffffff;color:#080808&quot;&gt;&lt;pre style=&quot;font-family:&#39;JetBrains Mono&#39;,monospace;font-size:9.8pt;&quot;&gt;&lt;span style=&quot;color:#000000;&quot;&gt;vidurkis &lt;/span&gt;= (&lt;span style=&quot;color:#000000;&quot;&gt;a &lt;/span&gt;+ &lt;span style=&quot;color:#000000;&quot;&gt;b &lt;/span&gt;+ &lt;span style=&quot;color:#000000;&quot;&gt;c &lt;/span&gt;+ &lt;span style=&quot;color:#000000;&quot;&gt;d &lt;/span&gt;+ &lt;span style=&quot;color:#000000;&quot;&gt;e&lt;/span&gt;)/&lt;span style=&quot;color:#1750eb;&quot;&gt;5&lt;/span&gt;&lt;/pre&gt;&lt;/div&gt;" style="whiteSpace=wrap;html=1;" vertex="1" parent="1">
          <mxGeometry x="220" y="340" width="410" height="60" as="geometry" />
        </mxCell>
        <mxCell id="aYtecQk715D64rf_AOso-12" value="" style="edgeStyle=orthogonalEdgeStyle;rounded=0;orthogonalLoop=1;jettySize=auto;html=1;" edge="1" parent="1" source="aYtecQk715D64rf_AOso-6">
          <mxGeometry relative="1" as="geometry">
            <mxPoint x="425" y="610" as="targetPoint" />
          </mxGeometry>
        </mxCell>
        <mxCell id="aYtecQk715D64rf_AOso-6" value="isvesti vidurkis" style="shape=parallelogram;perimeter=parallelogramPerimeter;whiteSpace=wrap;html=1;fixedSize=1;" vertex="1" parent="1">
          <mxGeometry x="365" y="480" width="120" height="60" as="geometry" />
        </mxCell>
        <mxCell id="aYtecQk715D64rf_AOso-10" value="pabaiga" style="ellipse;whiteSpace=wrap;html=1;" vertex="1" parent="1">
          <mxGeometry x="365" y="610" width="120" height="80" as="geometry" />
        </mxCell>
      </root>
    </mxGraphModel>
  </diagram>
</mxfile>
